<svg aria-hidden="true" style="position:absolute;width:0;height:0;overflow:hidden" xmlns="http://www.w3.org/2000/svg">
  <defs>
    <symbol id="icon-facebook" viewBox="0 0 32 32">
      <path style="fill:var(--color1, #000)" d="M18.58 31.792zM18.9 31.737zM17.822 31.896zM18.129 31.859l-.226.028.226-.028zM19.336 31.651a10.14 10.14 0 0 1-.169.035l.169-.035zM20.416 31.382l-.136.038.136-.038zM20.09 31.471l-.148.039c.05-.012.099-.025.148-.039zM19.662 31.578a7.32 7.32 0 0 1-.158.035l.158-.035zM17.346 31.943l-.253.019.253-.019z"/>
      <path fill="#e2ab3f" style="fill:var(--color2, #e2ab3f)" d="M32 16c0-8.835-7.165-16-16-16S0 7.165 0 16s7.165 16 16 16c.094 0 .188-.002.281-.004V19.541h-3.438v-4.006h3.438v-2.948c0-3.419 2.087-5.28 5.137-5.28 1.46 0 2.716.109 3.082.157v3.573h-2.103c-1.659 0-1.98.789-1.98 1.945v2.552h3.967l-.517 4.006h-3.45v11.841C27.105 29.464 32 23.302 32 15.999z"/>
      <path style="fill:var(--color1, #000)" d="M17.057 31.965zM16.547 31.99z"/>
    </symbol>
    <symbol id="icon-instagram" viewBox="0 0 32 32">
      <path fill="#e2ab3f" style="fill:var(--color2, #e2ab3f)" d="M19.063 16a3.063 3.063 0 1 1-6.126 0 3.063 3.063 0 0 1 6.126 0z"/>
      <path fill="#e2ab3f" style="fill:var(--color2, #e2ab3f)" d="M23.162 10.582a2.84 2.84 0 0 0-.687-1.056 2.84 2.84 0 0 0-1.056-.687c-.324-.126-.81-.275-1.706-.316-.969-.044-1.26-.054-3.713-.054s-2.744.009-3.713.053c-.896.041-1.382.191-1.706.316a2.84 2.84 0 0 0-1.056.687c-.305.296-.54.657-.688 1.056-.126.324-.275.81-.316 1.706-.044.969-.054 1.259-.054 3.713s.009 2.744.054 3.713c.041.896.19 1.382.316 1.706.147.399.382.76.687 1.056.296.305.657.54 1.056.687.324.126.81.276 1.706.316.969.044 1.259.054 3.712.054s2.744-.009 3.713-.054c.896-.041 1.382-.19 1.706-.316a3.042 3.042 0 0 0 1.744-1.744c.126-.324.275-.81.316-1.706.044-.969.054-1.26.054-3.713s-.009-2.744-.054-3.713c-.041-.896-.19-1.382-.316-1.706zM16 20.718a4.718 4.718 0 1 1 0-9.435 4.718 4.718 0 0 1 0 9.435zm4.904-8.52a1.102 1.102 0 1 1 0-2.205 1.102 1.102 0 0 1 0 2.205z"/>
      <path fill="#e2ab3f" style="fill:var(--color2, #e2ab3f)" d="M16 0C7.165 0 0 7.165 0 16s7.165 16 16 16 16-7.165 16-16S24.835 0 16 0zm9.132 19.788c-.044.978-.2 1.646-.427 2.23a4.697 4.697 0 0 1-2.687 2.687c-.584.227-1.252.382-2.23.427-.98.045-1.293.055-3.788.055s-2.808-.011-3.788-.055c-.978-.045-1.646-.2-2.23-.427a4.5 4.5 0 0 1-1.627-1.06 4.513 4.513 0 0 1-1.06-1.627c-.227-.584-.383-1.252-.427-2.23-.045-.98-.056-1.293-.056-3.788s.011-2.808.055-3.788c.044-.978.2-1.646.427-2.23a4.513 4.513 0 0 1 1.06-1.627 4.5 4.5 0 0 1 1.627-1.06c.584-.227 1.252-.382 2.23-.427.98-.045 1.293-.055 3.788-.055s2.808.011 3.788.056c.978.044 1.646.2 2.23.427a4.517 4.517 0 0 1 1.628 1.06 4.513 4.513 0 0 1 1.06 1.627c.227.584.383 1.252.427 2.23.045.98.055 1.293.055 3.788s-.011 2.808-.055 3.788z"/>
    </symbol>
    <symbol id="icon-youtube" viewBox="0 0 32 32">
      <path fill="#e2ab3f" style="fill:var(--color2, #e2ab3f)" d="M14.007 18.998 19.212 16l-5.205-2.998v5.995z"/>
      <path fill="#e2ab3f" style="fill:var(--color2, #e2ab3f)" d="M16 0C7.165 0 0 7.165 0 16s7.165 16 16 16 16-7.165 16-16S24.835 0 16 0zm9.998 16.016s0 3.245-.412 4.81a2.506 2.506 0 0 1-1.762 1.762C22.259 23 16.001 23 16.001 23s-6.242 0-7.823-.428a2.504 2.504 0 0 1-1.762-1.762c-.412-1.548-.412-4.809-.412-4.809s0-3.245.412-4.809a2.555 2.555 0 0 1 1.762-1.779c1.565-.412 7.823-.412 7.823-.412s6.259 0 7.823.428c.856.23 1.532.906 1.762 1.762.428 1.565.412 4.826.412 4.826z"/>
    </symbol>
  </defs>
</svg>
